<?xml version="1.0" standalone="no"?>
<!DOCTYPE svg PUBLIC "-//W3C//DTD SVG 20010904//EN"
 "http://www.w3.org/TR/2001/REC-SVG-20010904/DTD/svg10.dtd">
<svg version="1.0" xmlns="http://www.w3.org/2000/svg"
 width="640.000000pt" height="640.000000pt" viewBox="0 0 640.000000 640.000000"
 preserveAspectRatio="xMidYMid meet">
<metadata>
Created by potrace 1.11, written by Peter Selinger 2001-2013
</metadata>
<g transform="translate(0.000000,640.000000) scale(0.100000,-0.100000)"
fill="#000000" stroke="none">
<path d="M4155 2639 c-75 -11 -175 -59 -211 -102 -94 -111 -109 -303 -33 -435
28 -50 89 -101 145 -122 52 -20 166 -29 247 -20 113 13 117 15 117 57 l0 35
-47 -8 c-27 -5 -91 -9 -143 -9 -108 1 -156 19 -205 76 -92 111 -74 327 34 407
72 53 174 66 286 36 59 -15 60 -15 77 7 25 30 22 45 -9 58 -25 10 -163 32
-188 29 -5 0 -37 -4 -70 -9z"/>
<path d="M1347 2311 c-81 -181 -147 -334 -147 -340 0 -8 16 -11 46 -9 l47 3
44 103 45 102 154 0 155 0 34 -77 c59 -132 55 -128 108 -131 26 -2 47 1 47 6
0 8 -178 410 -271 610 l-28 62 -43 0 -44 0 -147 -329z m203 206 c0 -10 27 -74
107 -254 4 -10 -23 -13 -117 -13 -94 0 -121 3 -117 13 3 6 25 59 50 117 25 58
48 117 52 132 7 27 25 30 25 5z"/>
<path d="M2010 2300 l0 -340 215 0 215 0 0 40 0 40 -170 0 -170 0 0 300 0 300
-45 0 -45 0 0 -340z"/>
<path d="M2595 2629 c-3 -8 -4 -160 -3 -339 l3 -325 47 -3 47 -3 3 133 3 133
115 5 c103 5 121 9 170 35 63 35 96 79 106 141 15 101 -44 188 -144 214 -26 7
-113 14 -194 17 -121 5 -148 3 -153 -8z m332 -92 c68 -36 82 -131 28 -187 -33
-35 -91 -50 -189 -50 l-76 0 0 128 c0 71 2 131 4 133 12 11 204 -8 233 -24z"/>
<path d="M3386 2588 c-13 -29 -78 -173 -144 -320 -66 -147 -124 -277 -127
-288 -6 -20 -3 -21 41 -18 l48 3 45 102 46 103 156 0 155 0 46 -102 45 -103
47 -3 c33 -2 46 1 46 10 0 8 -63 155 -141 328 -77 173 -143 321 -146 328 -3 7
-23 12 -50 12 -44 0 -44 -1 -67 -52z m141 -226 c23 -57 43 -105 43 -107 0 -3
-54 -5 -120 -5 l-120 0 26 58 c24 52 71 168 89 217 6 17 9 14 22 -20 9 -22 36
-86 60 -143z"/>
<path d="M4783 2603 c-8 -21 -38 -87 -65 -148 -88 -194 -218 -486 -218 -491 0
-10 89 -3 97 9 5 6 27 54 49 104 l39 93 156 0 156 0 45 -102 45 -103 49 0 c27
0 48 4 47 10 -1 6 -63 147 -138 315 -76 168 -141 315 -146 328 -7 18 -16 22
-54 22 -44 0 -47 -2 -62 -37z m127 -220 c27 -68 50 -125 50 -128 0 -3 -54 -5
-119 -5 l-119 0 49 111 c27 61 49 115 49 119 0 5 5 21 11 37 10 26 12 27 20 8
4 -11 31 -75 59 -142z"/>
<path d="M1460 1340 l0 -253 124 5 c136 6 185 21 217 68 43 61 23 146 -42 175
l-39 18 29 18 c46 28 64 63 58 110 -10 79 -51 98 -223 106 l-124 6 0 -253z
m259 204 c75 -30 78 -130 5 -160 -18 -8 -78 -17 -133 -20 l-101 -7 0 101 0
102 95 0 c63 0 108 -5 134 -16z m-10 -214 c55 -15 81 -47 81 -95 0 -85 -55
-115 -209 -115 l-91 0 0 110 0 110 93 0 c50 0 107 -4 126 -10z"/>
<path d="M1990 1341 c0 -198 3 -252 13 -249 8 3 13 37 15 111 l3 107 73 0 73
0 73 -106 c67 -98 93 -125 106 -111 3 3 -28 54 -70 114 l-76 108 41 19 c50 24
79 68 79 121 0 95 -44 122 -213 131 l-117 7 0 -252z m234 205 c86 -36 89 -148
5 -192 -16 -8 -69 -17 -119 -21 l-90 -6 0 117 0 116 85 0 c51 0 99 -6 119 -14z"/>
<path d="M2490 1340 l0 -250 155 0 c131 0 155 2 155 15 0 13 -22 15 -140 15
l-140 0 0 110 0 110 130 0 c109 0 130 2 130 15 0 13 -21 15 -130 15 l-130 0 0
95 0 95 141 0 c108 0 140 3 137 13 -4 9 -46 13 -156 15 l-152 3 0 -251z"/>
<path d="M2910 1579 c0 -6 27 -97 61 -202 34 -106 67 -213 75 -239 24 -78 39
-63 84 85 23 72 53 166 66 207 13 41 24 80 24 87 0 44 24 -13 86 -204 73 -229
86 -251 111 -183 20 58 143 446 143 453 0 4 -6 7 -14 7 -10 0 -36 -66 -80
-204 -36 -112 -66 -209 -66 -215 0 -40 -24 16 -85 202 -49 148 -74 212 -85
212 -10 0 -33 -60 -78 -200 -35 -110 -66 -208 -70 -219 -6 -13 -29 49 -77 203
-44 142 -73 221 -82 221 -7 0 -13 -5 -13 -11z"/>
<path d="M3702 1343 l3 -248 153 -3 c131 -2 152 0 152 13 0 13 -21 15 -140 15
l-140 0 0 110 0 110 130 0 c109 0 130 2 130 15 0 13 -21 15 -130 15 l-130 0 0
95 0 95 140 0 c118 0 140 2 140 15 0 13 -24 15 -155 15 l-155 0 2 -247z"/>
<path d="M4175 1579 c-3 -8 -4 -120 -3 -249 3 -201 5 -235 18 -235 12 0 16 20
18 108 l3 107 72 0 72 -1 75 -109 c47 -68 82 -110 93 -110 9 0 17 2 17 4 0 3
-34 53 -75 112 l-75 107 48 28 c52 30 72 61 72 115 0 50 -26 93 -66 110 -20 8
-86 18 -149 21 -94 5 -115 3 -120 -8z m262 -45 c37 -28 48 -67 34 -114 -18
-59 -58 -79 -167 -82 l-89 -3 -3 114 -3 113 100 -4 c81 -3 106 -8 128 -24z"/>
<path d="M4600 1585 c0 -3 43 -73 95 -157 l95 -152 0 -94 c0 -70 3 -93 13 -90
8 3 13 35 15 101 l3 97 89 141 c50 77 90 145 90 150 0 33 -36 -9 -109 -126
-46 -74 -87 -135 -90 -135 -3 0 -43 61 -89 135 -46 74 -89 135 -97 135 -8 0
-15 -2 -15 -5z"/>
</g>
</svg>
